<svg xmlns="http://www.w3.org/2000/svg" version="1.1" xmlns:xlink="http://www.w3.org/1999/xlink" xmlns:svgjs="http://svgjs.dev/svgjs" width="100%" height="100%" viewBox="0 0 1000 600"><rect width="1000" height="600" x="0" y="0" fill="#f7f7f7"/><g><rect width="333.3333333333333" height="333.3333333333333" rx="13.333333333333334" ry="13.333333333333334" y="116.6666604808731" fill="#006838" transform="matrix(1.3235293642459873,0,0,1.3235293642459875,0,-74.99999053668034)" x="94.44445037841795"/><path d="M201.76215741038317 358.33333650726115L274.8871593475342 358.33333650726115L274.8871593475342 350.83333630857896L259.8871589501699 350.83333630857896L259.8871589501699 288.95833466945123L304.5225767992713 288.95833466945123L304.5225767992713 281.45833447076905L259.8871589501699 281.45833447076905L259.8871589501699 215.83333273230025L312.0225769979535 215.83333273230025L312.0225769979535 251.4583336760405L320.4600772214709 251.4583336760405L320.4600772214709 208.3333325336181L201.76215741038317 208.3333325336181L201.76215741038317 215.83333273230025L216.76215780774746 215.83333273230025L216.76215780774746 350.83333630857896L201.76215741038317 350.83333630857896L201.76215741038317 358.33333650726115Z " fill="#f7f7f7" transform="matrix(1.3235293642459873,0,0,1.3235293642459875,0,-74.99999053668034)"/><path d="M626.215284237707 208.33333237467227L661.1111184954643 243.22916663242952L661.1111184954643 323.43750209055816L626.215284237707 358.33333634831536L546.0069487795784 358.33333634831536L511.1111145218212 323.43750209055816L511.1111145218212 243.22916663242952L546.0069487795784 208.33333237467227L626.215284237707 208.33333237467227ZM621.0069507664 220.3124993586785L551.2152822508856 220.3124993586785L523.8715315265235 247.7083334177536L523.8715315265235 318.9583353052341L551.2152822508856 347.08333605029213L621.0069507664 347.08333605029213L648.350701490762 318.9583353052341L648.350701490762 247.7083334177536L621.0069507664 220.3124993586785Z " fill="#00000" transform="matrix(1.3235293642459873,0,0,1.3235293642459875,0,-74.99999053668034)"/></g></svg>